<svg xmlns="http://www.w3.org/2000/svg" width="32" height="32" viewBox="0 0 32 32"><g><g><path fill="#e4e4e4" d="M10.735 16.614v-3.716h2.08v-2.403c0-2.132 1.159-4.41 4.409-4.41l3.239.015v3.604h-2.35c-.217 0-.926.073-.926 1.013v2.185h3.265l-.382 3.712h-2.885V27.18h-4.37V16.614zm16.579 10.699A15.896 15.896 0 0 0 31.999 16c0-4.274-1.664-8.292-4.685-11.314A15.893 15.893 0 0 0 15.999 0 15.893 15.893 0 0 0 4.686 4.686 15.895 15.895 0 0 0-.001 16c0 4.273 1.665 8.291 4.687 11.313A15.893 15.893 0 0 0 15.999 32c4.275 0 8.293-1.665 11.315-4.687z"/></g></g></svg>