<svg xmlns="http://www.w3.org/2000/svg" width="43" height="34" viewBox="0 0 43 34"><g><g><g><path fill="none" stroke="#231f20" stroke-miterlimit="20" d="M9.147 21.566c-.262.127-7.607 7.241-7.738 7.496C.36 30.713 1.41 33 3.64 33h25.836c.787 0 1.442-.381 1.967-.89l9.18-10.163c1.705-1.398.918-3.939-1.311-3.939h-2.099v0"/></g><g><path fill="none" stroke="#231f20" stroke-miterlimit="20" d="M14.228 29.189c-2.54-.636-3.684.889-5.844.889-.89 0-2.287-.508-2.541-1.906-.381-1.778 1.27-2.795 2.541-3.303 2.16-.762 1.652-2.414 1.652-2.414v0"/></g><g><path fill="none" stroke="#231f20" stroke-miterlimit="20" d="M23.181 4.176A3.145 3.145 0 0 1 26.358 1a3.145 3.145 0 0 1 3.176 3.176"/></g><g><path fill="none" stroke="#231f20" stroke-miterlimit="20" d="M13.096 23.159s.89-.635 1.525-.508"/></g><g><path fill="none" stroke="#231f20" stroke-miterlimit="20" d="M21.759 22.65s.889.255 1.27.509"/></g><g><path fill="none" stroke="#231f20" stroke-miterlimit="20" d="M20.004 18.087c.381 0 2.922.762 4.066-.508 1.143-1.144 1.524 1.016 1.778 3.176"/></g><g><path fill="none" stroke="#231f20" stroke-miterlimit="20" d="M25.66 4.306c-8.386 1.056-7.115 10.426-9.402 12.537v0c-1.144.792-4.32-.528-4.955.792-.635 1.188 0 3.96 0 5.411.254 4.091 1.778 6.071 5.844 6.335 1.27.132 5.59-.66 6.607.132 5.081 3.695 5.97-.264 4.954-2.112-1.651-2.771.509-4.223 1.27-4.883 2.542-2.111 3.304 3.828 5.591-2.507 3.685-9.766-3.05-16.497-9.91-15.705z"/></g></g></g></svg>