<svg xmlns="http://www.w3.org/2000/svg" width="37" height="34" viewBox="0 0 37 34"><g><g><g><path fill="none" stroke="#231f20" stroke-miterlimit="20" d="M11.742 26.959C14.987 30.427 19.014 33 20.804 33c3.245 0 14.88-7.608 15.216-15.327.223-5.147-4.14-9.174-9.174-9.174-1.902 0-3.692.559-5.147 1.566-1.454-1.007-3.356-1.678-5.258-1.678a9.144 9.144 0 0 0-9.174 9.174c0 1.79.671 3.692 1.79 5.594"/></g><g/><g><path fill="none" stroke="#231f20" stroke-miterlimit="20" d="M30.761 9.149c0-1.678-1.221-3.468-2.11-5.035-.888-1.678.556-2.685 0-3.02-.999-.56-3.331 1.566-4.664 1.566-1.332 0-4.442-1.119-4.997-.783-.777.447.333 2.685-.222 3.468-.111.112-.333.448-.888.336-1.777-.336-3.554-1.343-5.553-1.343C6.108 4.338 1 9.15 1 15.19c0 6.042 5.108 10.853 11.327 10.853 5.886 0 11.105-4.028 11.105-8.839"/></g><g><path fill="none" stroke="#231f20" stroke-miterlimit="20" d="M13.643 16.786c0-2.685 2.237-4.922 4.922-4.922 2.685 0 4.811 1.678 4.923 5.258"/></g><g/><g><path fill="none" stroke="#231f20" stroke-miterlimit="20" d="M22.006 6.688s.67-.672 1.566-.672"/></g><g><path fill="none" stroke="#231f20" stroke-miterlimit="20" d="M26.228 5.68s.895-.335 1.679.225"/></g></g></g></svg>