<svg xmlns="http://www.w3.org/2000/svg" width="300" height="40" viewBox="0 0 300 40"><g><g><g><path fill="#030404" d="M292.58 36.689a3.311 3.311 0 1 1 6.622 0 3.311 3.311 0 0 1-6.622 0z"/></g><g><path fill="#030404" d="M24.495 5.497v30.355a.829.829 0 0 1-.82.838h-4.768a.829.829 0 0 1-.82-.838V23.42H6.408v12.432a.829.829 0 0 1-.82.838H.82A.829.829 0 0 1 0 35.852V5.497c0-.463.367-.838.82-.838h4.768c.452 0 .819.375.819.838v11.7h11.68v-11.7c0-.463.368-.838.82-.838h4.769c.452 0 .819.375.819.838z"/></g><g><path fill="#030404" d="M36.532 20.782c.807-2.642 2.823-4.525 5.96-4.525 3.09 0 5.107 1.838 5.824 4.525zm17.818 4.705a.822.822 0 0 0 .82-.8c.244-7.727-4.75-13.715-12.634-13.715-7.527 0-12.859 5.51-12.859 12.902 0 7.348 5.287 12.815 12.994 12.815 4.931 0 9.551-2.223 11.64-7.25a.819.819 0 0 0-.758-1.13h-4.955a.816.816 0 0 0-.71.415c-.96 1.713-2.976 2.677-5.262 2.677-3.316 0-6.004-1.97-6.407-5.914H54.35z"/></g><g><path fill="#030404" d="M66.135 1.523c.452 0 .82.373.82.834v33.497c0 .46-.368.835-.82.835h-4.769a.828.828 0 0 1-.819-.835V7.218c0-3.146 2.502-5.695 5.588-5.695z"/></g><g><path fill="#030404" d="M77.894 1.523c.453 0 .82.373.82.834v33.497c0 .46-.367.835-.82.835h-4.768a.828.828 0 0 1-.82-.835V7.218c0-3.146 2.502-5.695 5.588-5.695z"/></g><g><path fill="#030404" d="M89.981 23.83c0-4.034 2.778-6.766 6.362-6.766 3.585 0 6.362 2.732 6.362 6.765 0 4.078-2.777 6.766-6.362 6.766-3.584 0-6.362-2.688-6.362-6.766zm19.221 0c0-7.438-5.735-12.858-12.859-12.858-7.079 0-12.814 5.42-12.814 12.857 0 7.393 5.646 12.86 12.814 12.86 7.214 0 12.859-5.422 12.859-12.86z"/></g><g><path fill="#030404" d="M121.48 10.883v6.726h12.622c.452 0 .819.375.819.837v4.55a.828.828 0 0 1-.82.836H121.48v12.02a.829.829 0 0 1-.82.838h-4.768a.829.829 0 0 1-.82-.838V4.659h20.24c.452 0 .819.375.819.838v4.55a.829.829 0 0 1-.82.836z"/></g><g><path fill="#030404" d="M155.89 12.347v4.948c0 .47-.395.844-.864.818-.2-.012-.425-.018-.705-.018-4.077 0-7.571 1.792-7.571 7.617V35.87a.82.82 0 0 1-.82.82h-4.768a.82.82 0 0 1-.82-.82V12.866a.82.82 0 0 1 .82-.82h4.769a.82.82 0 0 1 .819.82v3.481c1.523-3.224 4.211-4.838 7.706-4.838.241 0 .46.007.662.02a.82.82 0 0 1 .772.818z"/></g><g><path fill="#030404" d="M160.456 11.59h4.768c.453 0 .82.373.82.835v23.429a.827.827 0 0 1-.82.834h-4.768a.827.827 0 0 1-.82-.834v-23.43c0-.461.367-.834.82-.834zm6.394-7.757c0 2.234-1.658 3.878-3.988 3.878-2.24 0-3.987-1.644-3.987-3.878 0-2.236 1.747-3.833 3.987-3.833 2.33 0 3.988 1.597 3.988 3.833z"/></g><g><path fill="#030404" d="M177.863 20.782c.807-2.642 2.823-4.525 5.96-4.525 3.09 0 5.107 1.838 5.824 4.525zm17.818 4.705a.823.823 0 0 0 .82-.8c.244-7.727-4.75-13.715-12.634-13.715-7.527 0-12.859 5.51-12.859 12.902 0 7.348 5.287 12.815 12.994 12.815 4.931 0 9.551-2.223 11.64-7.25a.819.819 0 0 0-.758-1.13h-4.955a.816.816 0 0 0-.71.415c-.96 1.713-2.976 2.677-5.262 2.677-3.316 0-6.004-1.97-6.407-5.914h18.131z"/></g><g><path fill="#030404" d="M224.305 21.231V35.87a.82.82 0 0 1-.82.82h-4.767a.82.82 0 0 1-.82-.82V22.62c0-3.226-1.21-5.017-4.615-5.017-3.629 0-5.555 2.105-5.555 6.138V35.87a.82.82 0 0 1-.82.82h-4.768a.82.82 0 0 1-.819-.82V12.866a.82.82 0 0 1 .82-.82h4.768a.82.82 0 0 1 .819.82v2.54c1.792-2.509 4.256-3.897 7.661-3.897 5.556 0 8.916 3.673 8.916 9.722z"/></g><g><path fill="#030404" d="M242.996 30.48c-3.54 0-6.228-2.74-6.228-6.895 0-4.108 2.644-6.894 6.228-6.894 3.584 0 6.317 2.786 6.317 6.894 0 4.155-2.733 6.895-6.317 6.895zM254.9.985h-4.768a.827.827 0 0 0-.82.835v12.725c-1.702-2.42-4.3-4.063-7.796-4.063-6.317 0-11.2 5.342-11.2 13.103 0 7.716 4.838 13.105 11.245 13.105 3.45 0 6.049-1.553 7.751-3.927v2.543c0 .46.367.835.82.835h4.768c.452 0 .82-.374.82-.835V1.82a.827.827 0 0 0-.82-.835z"/></g><g><path fill="#030404" d="M260.947 28.04h4.888c.341 0 .639.219.758.537.626 1.676 2.18 2.78 5.793 2.78 2.823 0 4.167-.672 4.167-2.016 0-1.658-1.927-1.793-5.645-2.69-6.99-1.656-9.857-3.224-9.857-7.482 0-5.195 4.3-8.197 10.798-8.197 6.315 0 9.664 2.812 10.818 6.83a.822.822 0 0 1-.785 1.055h-4.908a.828.828 0 0 1-.744-.483c-.611-1.277-1.965-2.027-4.606-2.027-2.553 0-4.121.717-4.121 2.06 0 1.166 1.12 1.389 4.704 2.198 7.034 1.61 10.977 2.955 10.977 7.884 0 5.51-4.884 8.2-10.977 8.2-6.157 0-10.748-2.82-12.052-7.616a.82.82 0 0 1 .792-1.033z"/></g></g></g></svg>