<svg xmlns="http://www.w3.org/2000/svg" width="248" height="34" viewBox="0 0 248 34"><g><g><g><path fill="#fff" d="M242.418 30.603a2.791 2.791 0 1 1 5.582 0 2.791 2.791 0 0 1-5.582 0z"/></g><g><path fill="#fff" d="M20.647 4.857v25.056c0 .382-.309.691-.69.691h-4.02a.69.69 0 0 1-.69-.691V19.65H5.4v10.262c0 .382-.31.691-.691.691H.69a.691.691 0 0 1-.69-.691V4.857c0-.38.31-.69.69-.69h4.02c.381 0 .69.31.69.69v9.657h9.847V4.857c0-.38.309-.69.69-.69h4.02c.381 0 .69.31.69.69z"/></g><g><path fill="#fff" d="M30.794 17.196c.68-2.229 2.38-3.815 5.023-3.815 2.606 0 4.305 1.55 4.91 3.815zm15.02 3.966c.374 0 .678-.301.69-.675.206-6.513-4.003-11.562-10.65-11.562-6.344 0-10.838 4.645-10.838 10.877 0 6.194 4.456 10.801 10.952 10.801 4.157 0 8.051-1.873 9.813-6.11a.691.691 0 0 0-.64-.953h-4.176a.688.688 0 0 0-.6.35c-.808 1.444-2.508 2.256-4.435 2.256-2.794 0-5.06-1.66-5.4-4.984z"/></g><g><path fill="#fff" d="M54.877 1.523a.69.69 0 0 1 .69.692v27.697a.69.69 0 0 1-.69.69h-4.02a.69.69 0 0 1-.69-.69V6.233a4.71 4.71 0 0 1 4.71-4.71z"/></g><g><path fill="#fff" d="M64.62 1.523a.69.69 0 0 1 .69.692v27.697a.69.69 0 0 1-.69.69H60.6a.69.69 0 0 1-.69-.69V6.233a4.71 4.71 0 0 1 4.71-4.71z"/></g><g><path fill="#fff" d="M74.563 19.764c0-3.4 2.342-5.703 5.363-5.703 3.021 0 5.363 2.304 5.363 5.703 0 3.438-2.342 5.703-5.363 5.703-3.021 0-5.363-2.265-5.363-5.703zm5.363-10.839c-5.967 0-10.801 4.57-10.801 10.84 0 6.23 4.759 10.838 10.801 10.838 6.08 0 10.84-4.57 10.84-10.839 0-6.268-4.835-10.839-10.84-10.839z"/></g><g><path fill="#fff" d="M100.659 9.302v5.553h10.639c.381 0 .69.31.69.69V19.3c0 .381-.309.69-.69.69h-10.64v9.923c0 .382-.308.691-.69.691h-4.02a.691.691 0 0 1-.69-.691V4.167h17.06c.381 0 .69.31.69.69v3.755a.69.69 0 0 1-.69.69z"/></g><g><path fill="#fff" d="M129.323 10.086v4.17c0 .396-.333.71-.728.69a10.951 10.951 0 0 0-.594-.017c-3.437 0-6.382 1.512-6.382 6.422v8.562a.69.69 0 0 1-.691.69h-4.02a.69.69 0 0 1-.69-.69v-19.39a.69.69 0 0 1 .69-.691h4.02a.69.69 0 0 1 .69.691v2.936c1.284-2.721 3.55-4.08 6.496-4.08.204 0 .388.006.558.018.366.02.65.321.65.689z"/></g><g><path fill="#fff" d="M132.958 9.83h4.02c.381 0 .69.31.69.692v19.39c0 .38-.309.69-.69.69h-4.02a.69.69 0 0 1-.69-.69v-19.39c0-.382.309-.692.69-.692zm5.39-6.418c0 1.85-1.397 3.21-3.361 3.21-1.888 0-3.361-1.36-3.361-3.21 0-1.852 1.472-3.173 3.36-3.173 1.965 0 3.362 1.321 3.362 3.173z"/></g><g><path fill="#fff" d="M152.321 13.381c2.606 0 4.305 1.55 4.91 3.815h-9.933c.68-2.229 2.38-3.815 5.023-3.815zm9.996 7.78c.375 0 .68-.3.691-.674.206-6.513-4.003-11.562-10.649-11.562-6.345 0-10.839 4.645-10.839 10.877 0 6.194 4.456 10.801 10.952 10.801 4.157 0 8.051-1.873 9.813-6.11a.691.691 0 0 0-.64-.953h-4.176a.688.688 0 0 0-.6.35c-.808 1.444-2.507 2.256-4.435 2.256-2.794 0-5.06-1.66-5.4-4.984z"/></g><g><path fill="#fff" d="M186.008 17.575v12.338a.69.69 0 0 1-.69.69h-4.02a.69.69 0 0 1-.69-.69v-11.17c0-2.717-1.02-4.229-3.89-4.229-3.06 0-4.684 1.776-4.684 5.175v10.224a.69.69 0 0 1-.69.69h-4.02a.69.69 0 0 1-.69-.69v-19.39a.69.69 0 0 1 .69-.691h4.02a.69.69 0 0 1 .69.691v2.142c1.51-2.117 3.588-3.286 6.458-3.286 4.683 0 7.516 3.097 7.516 8.196z"/></g><g><path fill="#fff" d="M205.948 19.763c0 3.436-2.304 5.703-5.326 5.703-2.983 0-5.25-2.267-5.25-5.703 0-3.4 2.23-5.702 5.25-5.702 3.022 0 5.326 2.303 5.326 5.702zm5.4-18.003a.69.69 0 0 0-.69-.69h-4.02a.69.69 0 0 0-.69.69v10.525c-1.436-2-3.626-3.36-6.572-3.36-5.325 0-9.441 4.418-9.441 10.838 0 6.383 4.078 10.84 9.479 10.84 2.908 0 5.098-1.284 6.534-3.248v2.104c0 .381.309.69.69.69h4.02a.69.69 0 0 0 .69-.69z"/></g><g><path fill="#fff" d="M215.754 23.314h4.12c.288 0 .538.184.639.453.528 1.411 1.837 2.342 4.883 2.342 2.38 0 3.512-.566 3.512-1.7 0-1.397-1.624-1.511-4.758-2.266-5.892-1.396-8.309-2.719-8.309-6.306 0-4.38 3.626-6.912 9.102-6.912 5.323 0 8.147 2.373 9.119 5.758a.692.692 0 0 1-.662.889h-4.137a.7.7 0 0 1-.627-.406c-.515-1.077-1.656-1.71-3.882-1.71-2.153 0-3.474.605-3.474 1.738 0 .981.944 1.17 3.965 1.85 5.93 1.36 9.253 2.493 9.253 6.647 0 4.646-4.117 6.912-9.253 6.912-5.19 0-9.06-2.376-10.159-6.42a.69.69 0 0 1 .668-.869z"/></g></g></g></svg>